<mxfile host="app.diagrams.net" modified="2024-03-08T12:20:24.514Z" agent="Mozilla/5.0 (Macintosh; Intel Mac OS X 10_15_7) AppleWebKit/537.36 (KHTML, like Gecko) Chrome/122.0.0.0 Safari/537.36" etag="gt1lbhYxBbQGYvbZhLDB" version="21.6.8" type="device">
  <diagram name="Page-1" id="ydM4uLpn_bMe_xV5Nbt1">
    <mxGraphModel dx="895" dy="659" grid="1" gridSize="10" guides="1" tooltips="1" connect="1" arrows="1" fold="1" page="1" pageScale="1" pageWidth="827" pageHeight="1169" math="0" shadow="0">
      <root>
        <mxCell id="0" />
        <mxCell id="1" parent="0" />
        <mxCell id="ngB1li15whf8Q4nunsyD-12" value="" style="rounded=0;whiteSpace=wrap;html=1;strokeColor=#ffffff;" vertex="1" parent="1">
          <mxGeometry x="80" y="320" width="420" height="140" as="geometry" />
        </mxCell>
        <mxCell id="ngB1li15whf8Q4nunsyD-1" value="Application" style="whiteSpace=wrap;html=1;aspect=fixed;" vertex="1" parent="1">
          <mxGeometry x="90" y="330" width="120" height="120" as="geometry" />
        </mxCell>
        <mxCell id="ngB1li15whf8Q4nunsyD-2" value="New Relic&lt;br&gt;Agent" style="rounded=0;whiteSpace=wrap;html=1;" vertex="1" parent="1">
          <mxGeometry x="150" y="410" width="60" height="40" as="geometry" />
        </mxCell>
        <mxCell id="ngB1li15whf8Q4nunsyD-4" value="Load&lt;br&gt;Balancer" style="rounded=0;whiteSpace=wrap;html=1;" vertex="1" parent="1">
          <mxGeometry x="250" y="330" width="80" height="120" as="geometry" />
        </mxCell>
        <mxCell id="ngB1li15whf8Q4nunsyD-5" value="CubeAPM" style="whiteSpace=wrap;html=1;aspect=fixed;" vertex="1" parent="1">
          <mxGeometry x="370" y="330" width="120" height="120" as="geometry" />
        </mxCell>
        <mxCell id="ngB1li15whf8Q4nunsyD-6" value="" style="endArrow=classic;html=1;rounded=0;exitX=1;exitY=0.5;exitDx=0;exitDy=0;entryX=0;entryY=0.5;entryDx=0;entryDy=0;" edge="1" parent="1" source="ngB1li15whf8Q4nunsyD-2" target="ngB1li15whf8Q4nunsyD-9">
          <mxGeometry width="50" height="50" relative="1" as="geometry">
            <mxPoint x="400" y="540" as="sourcePoint" />
            <mxPoint x="330" y="500" as="targetPoint" />
          </mxGeometry>
        </mxCell>
        <mxCell id="ngB1li15whf8Q4nunsyD-9" value="HTTPS&lt;br&gt;443" style="rounded=0;whiteSpace=wrap;html=1;" vertex="1" parent="1">
          <mxGeometry x="250" y="410" width="50" height="40" as="geometry" />
        </mxCell>
        <mxCell id="ngB1li15whf8Q4nunsyD-10" value="HTTP&lt;br&gt;3130" style="rounded=0;whiteSpace=wrap;html=1;" vertex="1" parent="1">
          <mxGeometry x="370" y="410" width="50" height="40" as="geometry" />
        </mxCell>
        <mxCell id="ngB1li15whf8Q4nunsyD-11" value="" style="endArrow=classic;html=1;rounded=0;exitX=1;exitY=0.5;exitDx=0;exitDy=0;entryX=0;entryY=0.5;entryDx=0;entryDy=0;" edge="1" parent="1">
          <mxGeometry width="50" height="50" relative="1" as="geometry">
            <mxPoint x="330" y="429.5" as="sourcePoint" />
            <mxPoint x="370" y="429.5" as="targetPoint" />
          </mxGeometry>
        </mxCell>
      </root>
    </mxGraphModel>
  </diagram>
</mxfile>
